<?xml version="1.0" encoding="iso-8859-1"?>
<!-- Generator: Adobe Illustrator 19.0.0, SVG Export Plug-In . SVG Version: 6.00 Build 0)  -->
<svg version="1.1" id="Capa_1" xmlns="http://www.w3.org/2000/svg" xmlns:xlink="http://www.w3.org/1999/xlink" x="0px" y="0px"
	 viewBox="0 0 512 512" style="enable-background:new 0 0 512 512;" xml:space="preserve">
<g>
	<g>
		<path d="M452,332c-15.24,0-29.657,5.792-40.568,15.796l-39.648-39.648C384.565,294.425,392,276.17,392,257v-30
			c0-12.867-1.905-25.597-5.537-37.828l24.969-24.968C422.344,174.208,436.76,180,452,180c33.084,0,60-26.916,60-60
			s-26.916-60-60-60c0-33.084-26.916-60-60-60s-60,26.916-60,60c0,15.24,5.792,29.657,15.797,40.568l-14.649,14.649
			c-23.142-16.312-50.973-25.313-79.147-25.196c-25.966,0.108-52.224,7.961-75.37,24.973l-14.427-14.427
			C174.208,89.657,180,75.24,180,60c0-33.084-26.916-60-60-60S60,26.916,60,60C26.916,60,0,86.916,0,120s26.916,60,60,60
			c15.24,0,29.657-5.792,40.568-15.796l25.719,25.719c-4.131,13.685-6.287,27.979-6.287,42.425V257
			c0,19.17,7.435,37.425,20.216,51.149l-39.648,39.647C89.657,337.792,75.24,332,60,332c-33.084,0-60,26.916-60,60s26.916,60,60,60
			c0,33.084,26.916,60,60,60s60-26.916,60-60c0-15.24-5.792-29.657-15.796-40.568l20.609-20.609
			C188.088,391.584,191.496,392,195,392h121c3.754,0,7.452-0.455,11.03-1.335l20.767,20.767C337.792,422.343,332,436.76,332,452
			c0,33.084,26.916,60,60,60s60-26.916,60-60c33.084,0,60-26.916,60-60S485.084,332,452,332z M385.056,97.292
			c-0.654-4.662-3.46-8.748-7.578-11.032C367.931,80.964,362,70.901,362,60c0-16.542,13.458-30,30-30s30,13.458,30,30
			c0,4.386-1.078,8.801-3.205,13.124c-2.835,5.762-1.688,12.688,2.853,17.229c4.54,4.541,11.467,5.687,17.229,2.853
			C443.199,91.079,447.614,90,452,90c16.542,0,30,13.458,30,30s-13.458,30-30,30c-10.901,0-20.964-5.931-26.26-15.478
			c-2.284-4.118-6.369-6.923-11.032-7.578c-4.662-0.655-9.362,0.918-12.691,4.248l-28.333,28.333
			c-5.038-8.705-11.059-16.909-17.971-24.447l25.095-25.095C384.137,106.654,385.71,101.954,385.056,97.292z M138.96,160.169
			l-28.976-28.977c-3.329-3.329-8.028-4.901-12.691-4.248c-4.663,0.655-8.748,3.46-11.032,7.578C80.964,144.069,70.901,150,60,150
			c-16.542,0-30-13.458-30-30s13.458-30,30-30c4.386,0,8.801,1.078,13.124,3.205c5.762,2.834,12.689,1.688,17.229-2.853
			c4.541-4.541,5.688-11.467,2.853-17.229C91.078,68.801,90,64.386,90,60c0-16.542,13.458-30,30-30s30,13.458,30,30
			c0,10.901-5.931,20.964-15.478,26.26c-4.118,2.284-6.923,6.369-7.578,11.032c-0.654,4.663,0.918,9.362,4.248,12.691l25.338,25.338
			c-0.821,0.937-1.635,1.884-2.436,2.847C148.363,145.061,143.309,152.433,138.96,160.169z M126.944,414.708
			c0.655,4.663,3.46,8.748,7.578,11.032C144.069,431.036,150,441.098,150,452c0,16.542-13.458,30-30,30s-30-13.458-30-30
			c0-4.386,1.078-8.801,3.205-13.124c2.835-5.762,1.688-12.688-2.853-17.229c-4.541-4.541-11.467-5.689-17.229-2.853
			C68.801,420.922,64.386,422,60,422c-16.542,0-30-13.458-30-30s13.458-30,30-30c10.902,0,20.964,5.931,26.26,15.478
			c2.284,4.118,6.369,6.923,11.032,7.578c4.66,0.653,9.362-0.918,12.691-4.248L150,340.791V347c0,10.17,3.395,19.559,9.106,27.103
			l-27.913,27.914C127.863,405.346,126.29,410.045,126.944,414.708z M339.477,295.966c-4.628,2.683-7.477,7.627-7.477,12.977V347
			c0,7.991-7.477,15-16,15h-15v-15c0-8.284-6.716-15-15-15s-15,6.716-15,15v15h-31v-15c0-8.284-6.716-15-15-15s-15,6.716-15,15v15
			h-15c-8.271,0-15-6.729-15-15v-38.057c0-5.35-2.849-10.294-7.477-12.977C158.63,287.913,150,272.981,150,257v-24.653
			c0-59.397,44.841-112.316,104.429-112.316C313.35,120.031,362,169.376,362,227v30C362,272.981,353.37,287.913,339.477,295.966z
			 M452,422c-4.386,0-8.801-1.079-13.124-3.205c-5.762-2.835-12.688-1.688-17.229,2.853c-4.541,4.541-5.688,11.467-2.853,17.229
			C420.922,443.199,422,447.614,422,452c0,16.542-13.458,30-30,30s-30-13.458-30-30c0-10.901,5.931-20.964,15.478-26.26
			c4.118-2.284,6.924-6.369,7.578-11.032s-0.919-9.362-4.248-12.691l-28.094-28.094C358.742,366.161,362,356.813,362,347v-6.209
			l40.017,40.017c3.329,3.33,8.035,4.901,12.691,4.248c4.663-0.655,8.748-3.46,11.032-7.578C431.036,367.931,441.099,362,452,362
			c16.542,0,30,13.458,30,30S468.542,422,452,422z"/>
	</g>
</g>
<g>
	<g>
		<path d="M210,212c-16.542,0-30,13.458-30,30s13.458,30,30,30s30-13.458,30-30S226.542,212,210,212z"/>
	</g>
</g>
<g>
	<g>
		<path d="M301,212c-16.542,0-30,13.458-30,30s13.458,30,30,30s30-13.458,30-30S317.542,212,301,212z"/>
	</g>
</g>
<g>
</g>
<g>
</g>
<g>
</g>
<g>
</g>
<g>
</g>
<g>
</g>
<g>
</g>
<g>
</g>
<g>
</g>
<g>
</g>
<g>
</g>
<g>
</g>
<g>
</g>
<g>
</g>
<g>
</g>
</svg>
